# MagicaVoxel @ Ephtracy

# material
mtllib cyborg.mtl
usemtl palette

# normals
vn -1 0 0
vn 1 0 0
vn 0 0 1
vn 0 0 -1
vn 0 -1 0
vn 0 1 0

# texcoords
vt 0.556641 0.5
vt 0.841797 0.5
vt 0.962891 0.5
vt 0.974609 0.5
vt 0.978516 0.5
vt 0.982422 0.5

# verts
v -6 7 -5
v -6 7 -6
v -6 8 -5
v -6 8 -6
v -5 7 -9
v -5 7 -10
v -5 8 -9
v -5 8 -10
v -4 5 -9
v -4 5 -10
v -4 6 -5
v -4 6 -6
v -4 7 -5
v -4 7 -6
v -4 7 -9
v -4 7 -10
v -4 8 -9
v -4 8 -10
v -4 11 -9
v -4 11 -10
v -1 3 -6
v -1 3 -9
v -1 6 -6
v -1 6 -9
v -1 7 -6
v -1 7 -9
v -1 8 -6
v -1 8 -9
v -1 9 -7
v -1 9 -8
v -1 10 -7
v -1 10 -8
v -1 11 -6
v -1 11 -9
v 0 0 -6
v 0 0 -7
v 0 0 -8
v 0 0 -9
v 0 3 -6
v 0 3 -7
v 0 3 -8
v 0 3 -9
v 0 7 -7
v 0 7 -8
v 0 8 -7
v 0 8 -8
v -3 5 -9
v -3 5 -10
v -3 6 -9
v -3 6 -10
v -3 7 -5
v -3 7 -6
v -3 8 -5
v -3 8 -6
v -3 8 -9
v -3 8 -10
v -3 11 -9
v -3 11 -10
v -2 7 -9
v -2 7 -10
v -2 8 -9
v -2 8 -10
v 1 0 -6
v 1 0 -7
v 1 0 -8
v 1 0 -9
v 1 3 -6
v 1 3 -7
v 1 3 -8
v 1 3 -9
v 1 6 -5
v 1 6 -6
v 1 6 -9
v 1 6 -10
v 1 7 -5
v 1 7 -6
v 1 7 -7
v 1 7 -8
v 1 7 -9
v 1 7 -10
v 1 8 -7
v 1 8 -8
v 2 3 -6
v 2 3 -9
v 2 7 -6
v 2 7 -9
v 2 8 -6
v 2 8 -9
v 2 11 -6
v 2 11 -9
v -6 7 -5
v -6 8 -5
v -4 6 -5
v -4 7 -5
v -3 6 -5
v -3 7 -5
v -3 8 -5
v 1 6 -5
v 1 7 -5
v -1 3 -6
v -1 6 -6
v -1 8 -6
v -1 11 -6
v 0 0 -6
v 0 3 -6
v 1 0 -6
v 1 3 -6
v 1 6 -6
v 1 7 -6
v 2 3 -6
v 2 7 -6
v 2 8 -6
v 2 11 -6
v 0 7 -7
v 0 8 -7
v 1 7 -7
v 1 8 -7
v 0 0 -8
v 0 3 -8
v 1 0 -8
v 1 3 -8
v -5 7 -9
v -5 8 -9
v -4 5 -9
v -4 7 -9
v -4 8 -9
v -4 11 -9
v -3 5 -9
v -3 6 -9
v -3 7 -9
v -3 8 -9
v -3 11 -9
v -2 7 -9
v -2 8 -9
v -1 6 -9
v -1 7 -9
v -6 7 -6
v -6 8 -6
v -4 6 -6
v -4 7 -6
v -3 6 -6
v -3 7 -6
v -3 8 -6
v -1 6 -6
v -1 7 -6
v 0 0 -7
v 0 3 -7
v 1 0 -7
v 1 3 -7
v 0 7 -8
v 0 8 -8
v 1 7 -8
v 1 8 -8
v -1 3 -9
v -1 6 -9
v -1 8 -9
v -1 11 -9
v 0 0 -9
v 0 3 -9
v 1 0 -9
v 1 3 -9
v 1 6 -9
v 1 7 -9
v 2 3 -9
v 2 7 -9
v 2 8 -9
v 2 11 -9
v -5 7 -10
v -5 8 -10
v -4 5 -10
v -4 7 -10
v -4 8 -10
v -4 11 -10
v -3 5 -10
v -3 6 -10
v -3 7 -10
v -3 8 -10
v -3 11 -10
v -2 7 -10
v -2 8 -10
v 1 6 -10
v 1 7 -10
v 0 0 -6
v 1 0 -6
v 0 0 -7
v 1 0 -7
v 0 0 -8
v 1 0 -8
v 0 0 -9
v 1 0 -9
v -1 3 -6
v 0 3 -6
v 1 3 -6
v 2 3 -6
v 0 3 -7
v 1 3 -7
v 0 3 -8
v 1 3 -8
v -1 3 -9
v 0 3 -9
v 1 3 -9
v 2 3 -9
v -4 5 -9
v -3 5 -9
v -4 5 -10
v -3 5 -10
v -4 6 -5
v -3 6 -5
v 1 6 -5
v -4 6 -6
v -3 6 -6
v -1 6 -6
v 1 6 -6
v -3 6 -9
v -1 6 -9
v 1 6 -9
v -3 6 -10
v 1 6 -10
v -6 7 -5
v -4 7 -5
v -6 7 -6
v -4 7 -6
v -5 7 -9
v -4 7 -9
v -5 7 -10
v -4 7 -10
v -1 8 -6
v 2 8 -6
v 0 8 -7
v 1 8 -7
v 0 8 -8
v 1 8 -8
v -1 8 -9
v 2 8 -9
v -3 7 -5
v 1 7 -5
v -3 7 -6
v -1 7 -6
v 1 7 -6
v 2 7 -6
v 0 7 -7
v 1 7 -7
v 0 7 -8
v 1 7 -8
v -2 7 -9
v -1 7 -9
v 1 7 -9
v 2 7 -9
v -2 7 -10
v 1 7 -10
v -6 8 -5
v -3 8 -5
v -6 8 -6
v -3 8 -6
v -5 8 -9
v -4 8 -9
v -3 8 -9
v -2 8 -9
v -5 8 -10
v -4 8 -10
v -3 8 -10
v -2 8 -10
v -1 11 -6
v 2 11 -6
v -4 11 -9
v -3 11 -9
v -1 11 -9
v 2 11 -9
v -4 11 -10
v -3 11 -10

# faces
f 3/6/1 2/6/1 1/6/1
f 4/6/1 2/6/1 3/6/1
f 7/4/1 6/4/1 5/4/1
f 8/4/1 6/4/1 7/4/1
f 13/6/1 12/6/1 11/6/1
f 14/6/1 12/6/1 13/6/1
f 15/1/1 10/1/1 9/1/1
f 16/1/1 10/1/1 15/1/1
f 19/3/1 18/3/1 17/3/1
f 20/3/1 18/3/1 19/3/1
f 23/5/1 22/5/1 21/5/1
f 24/5/1 22/5/1 23/5/1
f 25/5/1 24/5/1 23/5/1
f 26/5/1 24/5/1 25/5/1
f 29/5/1 28/5/1 27/5/1
f 30/5/1 28/5/1 29/5/1
f 31/5/1 29/5/1 27/5/1
f 31/2/1 30/2/1 29/2/1
f 32/5/1 28/5/1 30/5/1
f 32/2/1 30/2/1 31/2/1
f 33/5/1 31/5/1 27/5/1
f 33/5/1 32/5/1 31/5/1
f 34/5/1 28/5/1 32/5/1
f 34/5/1 32/5/1 33/5/1
f 39/5/1 36/5/1 35/5/1
f 40/5/1 36/5/1 39/5/1
f 41/5/1 38/5/1 37/5/1
f 42/5/1 38/5/1 41/5/1
f 45/5/1 44/5/1 43/5/1
f 46/5/1 44/5/1 45/5/1
f 47/1/2 48/1/2 49/1/2
f 49/1/2 48/1/2 50/1/2
f 51/6/2 52/6/2 53/6/2
f 53/6/2 52/6/2 54/6/2
f 55/3/2 56/3/2 57/3/2
f 57/3/2 56/3/2 58/3/2
f 59/4/2 60/4/2 61/4/2
f 61/4/2 60/4/2 62/4/2
f 63/5/2 64/5/2 67/5/2
f 67/5/2 64/5/2 68/5/2
f 65/5/2 66/5/2 69/5/2
f 69/5/2 66/5/2 70/5/2
f 71/5/2 72/5/2 75/5/2
f 75/5/2 72/5/2 76/5/2
f 73/5/2 74/5/2 79/5/2
f 79/5/2 74/5/2 80/5/2
f 77/5/2 78/5/2 81/5/2
f 81/5/2 78/5/2 82/5/2
f 83/5/2 84/5/2 85/5/2
f 85/5/2 84/5/2 86/5/2
f 87/5/2 88/5/2 89/5/2
f 89/5/2 88/5/2 90/5/2
f 94/6/3 92/6/3 91/6/3
f 95/6/3 94/6/3 93/6/3
f 96/6/3 92/6/3 94/6/3
f 96/6/3 94/6/3 95/6/3
f 97/6/3 92/6/3 96/6/3
f 98/5/3 96/5/3 95/5/3
f 99/5/3 96/5/3 98/5/3
f 105/5/3 101/5/3 100/5/3
f 106/5/3 105/5/3 104/5/3
f 107/5/3 101/5/3 105/5/3
f 107/5/3 105/5/3 106/5/3
f 108/5/3 101/5/3 107/5/3
f 110/5/3 109/5/3 108/5/3
f 110/5/3 108/5/3 107/5/3
f 111/5/3 109/5/3 110/5/3
f 112/5/3 103/5/3 102/5/3
f 113/5/3 103/5/3 112/5/3
f 116/5/3 115/5/3 114/5/3
f 117/5/3 115/5/3 116/5/3
f 120/5/3 119/5/3 118/5/3
f 121/5/3 119/5/3 120/5/3
f 125/4/3 123/4/3 122/4/3
f 126/4/3 123/4/3 125/4/3
f 128/1/3 125/1/3 124/1/3
f 129/1/3 125/1/3 128/1/3
f 130/4/3 126/4/3 125/4/3
f 130/1/3 125/1/3 129/1/3
f 131/3/3 127/3/3 126/3/3
f 131/4/3 126/4/3 130/4/3
f 132/3/3 127/3/3 131/3/3
f 133/5/3 130/5/3 129/5/3
f 133/4/3 131/4/3 130/4/3
f 134/4/3 131/4/3 133/4/3
f 135/5/3 133/5/3 129/5/3
f 136/5/3 133/5/3 135/5/3
f 137/6/4 138/6/4 140/6/4
f 139/6/4 140/6/4 141/6/4
f 140/6/4 138/6/4 142/6/4
f 141/6/4 140/6/4 142/6/4
f 142/6/4 138/6/4 143/6/4
f 141/5/4 142/5/4 144/5/4
f 144/5/4 142/5/4 145/5/4
f 146/5/4 147/5/4 148/5/4
f 148/5/4 147/5/4 149/5/4
f 150/5/4 151/5/4 152/5/4
f 152/5/4 151/5/4 153/5/4
f 154/5/4 155/5/4 159/5/4
f 158/5/4 159/5/4 160/5/4
f 159/5/4 155/5/4 161/5/4
f 160/5/4 159/5/4 161/5/4
f 161/5/4 155/5/4 162/5/4
f 162/5/4 163/5/4 164/5/4
f 161/5/4 162/5/4 164/5/4
f 164/5/4 163/5/4 165/5/4
f 156/5/4 157/5/4 166/5/4
f 166/5/4 157/5/4 167/5/4
f 168/4/4 169/4/4 171/4/4
f 171/4/4 169/4/4 172/4/4
f 170/1/4 171/1/4 174/1/4
f 174/1/4 171/1/4 175/1/4
f 171/4/4 172/4/4 176/4/4
f 175/1/4 171/1/4 176/1/4
f 172/3/4 173/3/4 177/3/4
f 176/4/4 172/4/4 177/4/4
f 177/3/4 173/3/4 178/3/4
f 175/5/4 176/5/4 179/5/4
f 176/4/4 177/4/4 179/4/4
f 179/4/4 177/4/4 180/4/4
f 175/5/4 179/5/4 181/5/4
f 181/5/4 179/5/4 182/5/4
f 185/5/5 184/5/5 183/5/5
f 186/5/5 184/5/5 185/5/5
f 189/5/5 188/5/5 187/5/5
f 190/5/5 188/5/5 189/5/5
f 195/5/5 192/5/5 191/5/5
f 196/5/5 194/5/5 193/5/5
f 197/5/5 195/5/5 191/5/5
f 197/5/5 196/5/5 195/5/5
f 198/5/5 194/5/5 196/5/5
f 198/5/5 196/5/5 197/5/5
f 199/5/5 197/5/5 191/5/5
f 200/5/5 197/5/5 199/5/5
f 201/5/5 194/5/5 198/5/5
f 202/5/5 194/5/5 201/5/5
f 205/1/5 204/1/5 203/1/5
f 206/1/5 204/1/5 205/1/5
f 210/6/5 208/6/5 207/6/5
f 211/5/5 209/5/5 208/5/5
f 211/6/5 208/6/5 210/6/5
f 212/5/5 209/5/5 211/5/5
f 213/5/5 209/5/5 212/5/5
f 217/5/5 215/5/5 214/5/5
f 217/5/5 216/5/5 215/5/5
f 218/5/5 216/5/5 217/5/5
f 221/6/5 220/6/5 219/6/5
f 222/6/5 220/6/5 221/6/5
f 225/4/5 224/4/5 223/4/5
f 226/4/5 224/4/5 225/4/5
f 229/5/5 228/5/5 227/5/5
f 230/5/5 228/5/5 229/5/5
f 231/5/5 229/5/5 227/5/5
f 232/5/5 228/5/5 230/5/5
f 233/5/5 231/5/5 227/5/5
f 233/5/5 232/5/5 231/5/5
f 234/5/5 228/5/5 232/5/5
f 234/5/5 232/5/5 233/5/5
f 235/5/6 236/5/6 237/5/6
f 237/5/6 236/5/6 238/5/6
f 238/5/6 236/5/6 239/5/6
f 239/5/6 240/5/6 241/5/6
f 238/5/6 239/5/6 241/5/6
f 241/5/6 240/5/6 242/5/6
f 238/5/6 241/5/6 243/5/6
f 242/5/6 240/5/6 244/5/6
f 238/5/6 243/5/6 246/5/6
f 243/5/6 244/5/6 246/5/6
f 244/5/6 240/5/6 247/5/6
f 246/5/6 244/5/6 247/5/6
f 247/5/6 240/5/6 248/5/6
f 245/5/6 246/5/6 249/5/6
f 246/5/6 247/5/6 249/5/6
f 249/5/6 247/5/6 250/5/6
f 251/6/6 252/6/6 253/6/6
f 253/6/6 252/6/6 254/6/6
f 255/4/6 256/4/6 259/4/6
f 259/4/6 256/4/6 260/4/6
f 257/4/6 258/4/6 261/4/6
f 261/4/6 258/4/6 262/4/6
f 263/5/6 264/5/6 267/5/6
f 267/5/6 264/5/6 268/5/6
f 265/3/6 266/3/6 269/3/6
f 269/3/6 266/3/6 270/3/6
