# MagicaVoxel @ Ephtracy

# material
mtllib flower1.mtl
usemtl palette

# normals
vn -1 0 0
vn 1 0 0
vn 0 0 1
vn 0 0 -1
vn 0 -1 0
vn 0 1 0

# texcoords
vt 0.216797 0.5
vt 0.771484 0.5
vt 0.896484 0.5

# verts
v -2 25 -1
v -2 25 -5
v -2 32 -1
v -2 32 -5
v -1 23 -1
v -1 23 -4
v -1 24 -0
v -1 24 -1
v -1 24 -4
v -1 24 -6
v -1 25 -1
v -1 25 -5
v -1 32 -0
v -1 32 -1
v -1 32 -5
v -1 32 -6
v 0 11 3
v 0 11 1
v 0 12 3
v 0 12 1
v 0 21 -2
v 0 21 -4
v 0 22 -1
v 0 22 -2
v 0 22 -4
v 0 22 -5
v 0 23 -1
v 0 23 -4
v 0 24 1
v 0 24 -0
v 0 24 -4
v 0 24 -5
v 0 25 -6
v 0 25 -7
v 0 32 1
v 0 32 -0
v 0 32 -6
v 0 32 -7
v 1 0 -2
v 1 0 -4
v 1 11 5
v 1 11 3
v 1 11 1
v 1 11 -0
v 1 12 5
v 1 12 3
v 1 12 1
v 1 12 -0
v 1 21 -2
v 1 21 -4
v 1 23 -0
v 1 23 -1
v 1 24 -0
v 1 24 -1
v 1 25 2
v 1 25 1
v 1 32 2
v 1 32 1
v 2 11 6
v 2 11 5
v 2 11 -0
v 2 11 -2
v 2 12 6
v 2 12 5
v 2 12 -0
v 2 12 -2
v 4 10 3
v 4 10 1
v 4 11 3
v 4 11 1
v 4 30 1
v 4 30 -1
v 4 31 -5
v 4 31 -6
v 4 32 1
v 4 32 -1
v 4 32 -5
v 4 32 -6
v 5 30 -1
v 5 30 -2
v 5 30 -3
v 5 30 -5
v 5 31 -1
v 5 31 -2
v 5 31 -3
v 5 31 -4
v 5 32 -4
v 5 32 -5
v 6 30 -2
v 6 30 -3
v 6 31 -1
v 6 31 -2
v 6 31 -3
v 6 31 -4
v 6 32 -1
v 6 32 -4
v -1 31 -2
v -1 31 -4
v -1 32 -2
v -1 32 -4
v 0 30 -2
v 0 30 -5
v 0 31 -1
v 0 31 -2
v 0 31 -4
v 0 32 -1
v 0 32 -2
v 0 32 -4
v 0 32 -5
v 1 31 -0
v 1 31 -1
v 1 31 -5
v 1 31 -6
v 1 32 -0
v 1 32 -1
v 1 32 -5
v 1 32 -6
v 2 30 1
v 2 30 -2
v 2 31 -0
v 2 31 -2
v 2 32 1
v 2 32 -0
v 3 0 -2
v 3 0 -4
v 3 11 6
v 3 11 4
v 3 11 -0
v 3 11 -2
v 3 12 6
v 3 12 4
v 3 12 -0
v 3 12 -2
v 3 22 -1
v 3 22 -2
v 3 22 -4
v 3 22 -5
v 3 23 -1
v 3 23 -2
v 3 24 -4
v 3 24 -5
v 4 11 4
v 4 11 3
v 4 11 1
v 4 11 -0
v 4 12 4
v 4 12 -0
v 4 22 -2
v 4 22 -4
v 4 23 -2
v 4 23 -3
v 4 24 -4
v 4 24 -6
v 4 25 2
v 4 25 1
v 4 25 -3
v 4 25 -6
v 4 25 -7
v 4 32 2
v 4 32 1
v 4 32 -6
v 4 32 -7
v 5 10 3
v 5 10 2
v 5 11 3
v 5 11 2
v 5 23 -0
v 5 23 -3
v 5 24 1
v 5 24 -0
v 5 25 1
v 5 25 -3
v 5 25 -5
v 5 25 -6
v 5 32 -5
v 5 32 -6
v 6 10 2
v 6 10 1
v 6 11 2
v 6 11 1
v 6 25 1
v 6 25 -0
v 6 25 -4
v 6 25 -5
v 6 32 1
v 6 32 -0
v 6 32 -4
v 6 32 -5
v 7 25 -0
v 7 25 -4
v 7 32 -0
v 7 32 -4
v 2 11 6
v 2 12 6
v 3 11 6
v 3 12 6
v 1 11 5
v 1 12 5
v 2 11 5
v 2 12 5
v 3 11 4
v 3 12 4
v 4 11 4
v 4 12 4
v 0 11 3
v 0 12 3
v 1 11 3
v 1 12 3
v 4 10 3
v 4 11 3
v 5 10 3
v 5 11 3
v 1 25 2
v 1 32 2
v 4 25 2
v 4 32 2
v 5 10 2
v 5 11 2
v 6 10 2
v 6 11 2
v 0 24 1
v 0 32 1
v 1 25 1
v 1 32 1
v 4 25 1
v 4 32 1
v 5 24 1
v 5 25 1
v 6 25 1
v 6 32 1
v -1 24 -0
v -1 32 -0
v 0 24 -0
v 0 32 -0
v 1 23 -0
v 1 24 -0
v 5 23 -0
v 5 24 -0
v 6 25 -0
v 6 32 -0
v 7 25 -0
v 7 32 -0
v -2 25 -1
v -2 32 -1
v -1 23 -1
v -1 24 -1
v -1 25 -1
v -1 32 -1
v 0 22 -1
v 0 23 -1
v 1 23 -1
v 1 24 -1
v 3 22 -1
v 3 23 -1
v 0 21 -2
v 0 22 -2
v 1 0 -2
v 1 21 -2
v 2 11 -2
v 2 12 -2
v 2 21 -2
v 2 22 -2
v 3 0 -2
v 3 11 -2
v 3 12 -2
v 3 22 -2
v 3 23 -2
v 4 22 -2
v 4 23 -2
v 5 30 -3
v 5 31 -3
v 6 30 -3
v 6 31 -3
v -1 31 -4
v -1 32 -4
v 0 31 -4
v 0 32 -4
v 5 31 -4
v 5 32 -4
v 6 31 -4
v 6 32 -4
v 0 30 -5
v 0 32 -5
v 1 31 -5
v 1 32 -5
v 4 31 -5
v 4 32 -5
v 5 30 -5
v 5 32 -5
v 1 31 -6
v 1 32 -6
v 4 31 -6
v 4 32 -6
v 0 11 1
v 0 12 1
v 1 11 1
v 1 12 1
v 2 30 1
v 2 32 1
v 4 10 1
v 4 11 1
v 4 30 1
v 4 32 1
v 6 10 1
v 6 11 1
v 1 11 -0
v 1 12 -0
v 1 31 -0
v 1 32 -0
v 2 11 -0
v 2 12 -0
v 2 31 -0
v 2 32 -0
v 3 11 -0
v 3 12 -0
v 4 11 -0
v 4 12 -0
v 0 31 -1
v 0 32 -1
v 1 31 -1
v 1 32 -1
v 4 30 -1
v 4 32 -1
v 5 30 -1
v 5 31 -1
v 6 31 -1
v 6 32 -1
v -1 31 -2
v -1 32 -2
v 0 30 -2
v 0 31 -2
v 0 32 -2
v 2 30 -2
v 2 31 -2
v 5 30 -2
v 5 31 -2
v 6 30 -2
v 6 31 -2
v 4 23 -3
v 4 25 -3
v 5 23 -3
v 5 25 -3
v -1 23 -4
v -1 24 -4
v 0 21 -4
v 0 22 -4
v 0 23 -4
v 0 24 -4
v 1 0 -4
v 1 21 -4
v 2 21 -4
v 2 22 -4
v 3 0 -4
v 3 22 -4
v 3 24 -4
v 4 22 -4
v 4 24 -4
v 6 25 -4
v 6 32 -4
v 7 25 -4
v 7 32 -4
v -2 25 -5
v -2 32 -5
v -1 25 -5
v -1 32 -5
v 0 22 -5
v 0 24 -5
v 3 22 -5
v 3 24 -5
v 5 25 -5
v 5 32 -5
v 6 25 -5
v 6 32 -5
v -1 24 -6
v -1 32 -6
v 0 25 -6
v 0 32 -6
v 4 24 -6
v 4 25 -6
v 4 32 -6
v 5 25 -6
v 5 32 -6
v 0 25 -7
v 0 32 -7
v 4 25 -7
v 4 32 -7
v 1 0 -2
v 3 0 -2
v 1 0 -4
v 3 0 -4
v 4 10 3
v 5 10 3
v 5 10 2
v 6 10 2
v 4 10 1
v 6 10 1
v 2 11 6
v 3 11 6
v 1 11 5
v 2 11 5
v 3 11 4
v 4 11 4
v 0 11 3
v 1 11 3
v 4 11 3
v 0 11 1
v 1 11 1
v 4 11 1
v 1 11 -0
v 2 11 -0
v 3 11 -0
v 4 11 -0
v 2 11 -2
v 3 11 -2
v 0 21 -2
v 1 21 -2
v 0 21 -4
v 1 21 -4
v 0 22 -1
v 3 22 -1
v 0 22 -2
v 2 22 -2
v 3 22 -2
v 4 22 -2
v 0 22 -4
v 2 22 -4
v 3 22 -4
v 4 22 -4
v 0 22 -5
v 3 22 -5
v 1 23 -0
v 5 23 -0
v -1 23 -1
v 0 23 -1
v 1 23 -1
v 3 23 -1
v 3 23 -2
v 4 23 -2
v 4 23 -3
v 5 23 -3
v -1 23 -4
v 0 23 -4
v 0 24 1
v 5 24 1
v -1 24 -0
v 0 24 -0
v 1 24 -0
v 5 24 -0
v -1 24 -1
v 1 24 -1
v -1 24 -4
v 0 24 -4
v 3 24 -4
v 4 24 -4
v 0 24 -5
v 3 24 -5
v -1 24 -6
v 4 24 -6
v 1 25 2
v 4 25 2
v 1 25 1
v 4 25 1
v 5 25 1
v 6 25 1
v 6 25 -0
v 7 25 -0
v -2 25 -1
v -1 25 -1
v 4 25 -3
v 5 25 -3
v 6 25 -4
v 7 25 -4
v -2 25 -5
v -1 25 -5
v 5 25 -5
v 6 25 -5
v 0 25 -6
v 4 25 -6
v 5 25 -6
v 0 25 -7
v 4 25 -7
v 4 11 3
v 5 11 3
v 5 11 2
v 6 11 2
v 4 11 1
v 6 11 1
v 2 12 6
v 3 12 6
v 1 12 5
v 2 12 5
v 3 12 4
v 4 12 4
v 0 12 3
v 1 12 3
v 0 12 1
v 1 12 1
v 1 12 -0
v 2 12 -0
v 3 12 -0
v 4 12 -0
v 2 12 -2
v 3 12 -2
v 2 30 1
v 4 30 1
v 4 30 -1
v 5 30 -1
v 0 30 -2
v 2 30 -2
v 5 30 -2
v 6 30 -2
v 5 30 -3
v 6 30 -3
v 0 30 -5
v 5 30 -5
v 1 31 -0
v 2 31 -0
v 0 31 -1
v 1 31 -1
v 5 31 -1
v 6 31 -1
v -1 31 -2
v 0 31 -2
v 2 31 -2
v 5 31 -2
v 6 31 -2
v 5 31 -3
v 6 31 -3
v -1 31 -4
v 0 31 -4
v 5 31 -4
v 6 31 -4
v 1 31 -5
v 4 31 -5
v 1 31 -6
v 4 31 -6
v 1 32 2
v 4 32 2
v 0 32 1
v 1 32 1
v 2 32 1
v 4 32 1
v 6 32 1
v -1 32 -0
v 0 32 -0
v 1 32 -0
v 2 32 -0
v 6 32 -0
v 7 32 -0
v -2 32 -1
v -1 32 -1
v 0 32 -1
v 1 32 -1
v 4 32 -1
v 6 32 -1
v -1 32 -2
v 0 32 -2
v -1 32 -4
v 0 32 -4
v 5 32 -4
v 6 32 -4
v 7 32 -4
v -2 32 -5
v -1 32 -5
v 0 32 -5
v 1 32 -5
v 4 32 -5
v 5 32 -5
v 6 32 -5
v -1 32 -6
v 0 32 -6
v 1 32 -6
v 4 32 -6
v 5 32 -6
v 0 32 -7
v 4 32 -7

# faces
f 3/1/1 2/1/1 1/1/1
f 4/1/1 2/1/1 3/1/1
f 8/1/1 6/1/1 5/1/1
f 9/1/1 6/1/1 8/1/1
f 11/1/1 8/1/1 7/1/1
f 11/1/1 10/1/1 9/1/1
f 11/1/1 9/1/1 8/1/1
f 12/1/1 10/1/1 11/1/1
f 13/1/1 11/1/1 7/1/1
f 14/1/1 11/1/1 13/1/1
f 15/1/1 10/1/1 12/1/1
f 16/1/1 10/1/1 15/1/1
f 19/2/1 18/2/1 17/2/1
f 20/2/1 18/2/1 19/2/1
f 24/1/1 22/1/1 21/1/1
f 25/1/1 22/1/1 24/1/1
f 27/1/1 24/1/1 23/1/1
f 27/1/1 26/1/1 25/1/1
f 27/1/1 25/1/1 24/1/1
f 28/1/1 26/1/1 27/1/1
f 31/1/1 26/1/1 28/1/1
f 32/1/1 26/1/1 31/1/1
f 35/1/1 30/1/1 29/1/1
f 36/1/1 30/1/1 35/1/1
f 37/1/1 34/1/1 33/1/1
f 38/1/1 34/1/1 37/1/1
f 45/2/1 42/2/1 41/2/1
f 46/2/1 42/2/1 45/2/1
f 47/2/1 44/2/1 43/2/1
f 48/2/1 44/2/1 47/2/1
f 49/3/1 40/3/1 39/3/1
f 50/3/1 40/3/1 49/3/1
f 53/1/1 52/1/1 51/1/1
f 54/1/1 52/1/1 53/1/1
f 57/1/1 56/1/1 55/1/1
f 58/1/1 56/1/1 57/1/1
f 63/2/1 60/2/1 59/2/1
f 64/2/1 60/2/1 63/2/1
f 65/2/1 62/2/1 61/2/1
f 66/2/1 62/2/1 65/2/1
f 69/2/1 68/2/1 67/2/1
f 70/2/1 68/2/1 69/2/1
f 75/1/1 72/1/1 71/1/1
f 76/1/1 72/1/1 75/1/1
f 77/1/1 74/1/1 73/1/1
f 78/1/1 74/1/1 77/1/1
f 83/1/1 80/1/1 79/1/1
f 84/1/1 80/1/1 83/1/1
f 85/1/1 82/1/1 81/1/1
f 86/1/1 82/1/1 85/1/1
f 87/1/1 82/1/1 86/1/1
f 88/1/1 82/1/1 87/1/1
f 92/1/1 90/1/1 89/1/1
f 93/1/1 90/1/1 92/1/1
f 95/1/1 92/1/1 91/1/1
f 95/1/1 94/1/1 93/1/1
f 95/1/1 93/1/1 92/1/1
f 96/1/1 94/1/1 95/1/1
f 97/1/2 98/1/2 99/1/2
f 99/1/2 98/1/2 100/1/2
f 101/1/2 102/1/2 104/1/2
f 104/1/2 102/1/2 105/1/2
f 103/1/2 104/1/2 106/1/2
f 106/1/2 104/1/2 107/1/2
f 105/1/2 102/1/2 108/1/2
f 108/1/2 102/1/2 109/1/2
f 110/1/2 111/1/2 114/1/2
f 114/1/2 111/1/2 115/1/2
f 112/1/2 113/1/2 116/1/2
f 116/1/2 113/1/2 117/1/2
f 118/1/2 119/1/2 120/1/2
f 120/1/2 119/1/2 121/1/2
f 118/1/2 120/1/2 122/1/2
f 122/1/2 120/1/2 123/1/2
f 124/3/2 125/3/2 129/3/2
f 126/2/2 127/2/2 130/2/2
f 130/2/2 127/2/2 131/2/2
f 128/2/2 129/2/2 132/2/2
f 129/3/2 125/3/2 133/3/2
f 132/2/2 129/2/2 133/2/2
f 133/3/2 125/3/2 135/3/2
f 135/3/2 125/3/2 136/3/2
f 134/1/2 135/1/2 138/1/2
f 138/1/2 135/1/2 139/1/2
f 136/1/2 137/1/2 140/1/2
f 140/1/2 137/1/2 141/1/2
f 142/2/2 143/2/2 146/2/2
f 144/2/2 145/2/2 146/2/2
f 143/2/2 144/2/2 146/2/2
f 146/2/2 145/2/2 147/2/2
f 148/1/2 149/1/2 150/1/2
f 150/1/2 149/1/2 151/1/2
f 151/1/2 149/1/2 152/1/2
f 151/1/2 152/1/2 156/1/2
f 152/1/2 153/1/2 156/1/2
f 156/1/2 153/1/2 157/1/2
f 154/1/2 155/1/2 159/1/2
f 159/1/2 155/1/2 160/1/2
f 157/1/2 158/1/2 161/1/2
f 161/1/2 158/1/2 162/1/2
f 163/2/2 164/2/2 165/2/2
f 165/2/2 164/2/2 166/2/2
f 167/1/2 168/1/2 170/1/2
f 169/1/2 170/1/2 171/1/2
f 170/1/2 168/1/2 172/1/2
f 171/1/2 170/1/2 172/1/2
f 173/1/2 174/1/2 175/1/2
f 175/1/2 174/1/2 176/1/2
f 177/2/2 178/2/2 179/2/2
f 179/2/2 178/2/2 180/2/2
f 181/1/2 182/1/2 185/1/2
f 185/1/2 182/1/2 186/1/2
f 183/1/2 184/1/2 187/1/2
f 187/1/2 184/1/2 188/1/2
f 189/1/2 190/1/2 191/1/2
f 191/1/2 190/1/2 192/1/2
f 195/2/3 194/2/3 193/2/3
f 196/2/3 194/2/3 195/2/3
f 199/2/3 198/2/3 197/2/3
f 200/2/3 198/2/3 199/2/3
f 203/2/3 202/2/3 201/2/3
f 204/2/3 202/2/3 203/2/3
f 207/2/3 206/2/3 205/2/3
f 208/2/3 206/2/3 207/2/3
f 211/2/3 210/2/3 209/2/3
f 212/2/3 210/2/3 211/2/3
f 215/1/3 214/1/3 213/1/3
f 216/1/3 214/1/3 215/1/3
f 219/2/3 218/2/3 217/2/3
f 220/2/3 218/2/3 219/2/3
f 223/1/3 222/1/3 221/1/3
f 224/1/3 222/1/3 223/1/3
f 225/1/3 223/1/3 221/1/3
f 227/1/3 225/1/3 221/1/3
f 227/1/3 226/1/3 225/1/3
f 228/1/3 226/1/3 227/1/3
f 229/1/3 226/1/3 228/1/3
f 230/1/3 226/1/3 229/1/3
f 233/1/3 232/1/3 231/1/3
f 234/1/3 232/1/3 233/1/3
f 237/1/3 236/1/3 235/1/3
f 238/1/3 236/1/3 237/1/3
f 241/1/3 240/1/3 239/1/3
f 242/1/3 240/1/3 241/1/3
f 247/1/3 244/1/3 243/1/3
f 248/1/3 244/1/3 247/1/3
f 250/1/3 246/1/3 245/1/3
f 251/1/3 246/1/3 250/1/3
f 251/1/3 250/1/3 249/1/3
f 252/1/3 246/1/3 251/1/3
f 253/1/3 251/1/3 249/1/3
f 254/1/3 251/1/3 253/1/3
f 258/1/3 256/1/3 255/1/3
f 259/3/3 258/3/3 257/3/3
f 260/3/3 258/3/3 259/3/3
f 261/1/3 256/1/3 258/1/3
f 261/3/3 258/3/3 260/3/3
f 262/1/3 256/1/3 261/1/3
f 263/3/3 259/3/3 257/3/3
f 264/3/3 259/3/3 263/3/3
f 265/3/3 262/3/3 261/3/3
f 265/3/3 261/3/3 260/3/3
f 266/3/3 262/3/3 265/3/3
f 268/1/3 267/1/3 266/1/3
f 269/1/3 267/1/3 268/1/3
f 272/1/3 271/1/3 270/1/3
f 273/1/3 271/1/3 272/1/3
f 276/1/3 275/1/3 274/1/3
f 277/1/3 275/1/3 276/1/3
f 280/1/3 279/1/3 278/1/3
f 281/1/3 279/1/3 280/1/3
f 284/1/3 283/1/3 282/1/3
f 285/1/3 283/1/3 284/1/3
f 286/1/3 284/1/3 282/1/3
f 288/1/3 286/1/3 282/1/3
f 288/1/3 287/1/3 286/1/3
f 289/1/3 287/1/3 288/1/3
f 292/1/3 291/1/3 290/1/3
f 293/1/3 291/1/3 292/1/3
f 294/2/4 295/2/4 296/2/4
f 296/2/4 295/2/4 297/2/4
f 298/1/4 299/1/4 302/1/4
f 302/1/4 299/1/4 303/1/4
f 300/2/4 301/2/4 304/2/4
f 304/2/4 301/2/4 305/2/4
f 306/2/4 307/2/4 310/2/4
f 310/2/4 307/2/4 311/2/4
f 308/1/4 309/1/4 312/1/4
f 312/1/4 309/1/4 313/1/4
f 314/2/4 315/2/4 316/2/4
f 316/2/4 315/2/4 317/2/4
f 318/1/4 319/1/4 320/1/4
f 320/1/4 319/1/4 321/1/4
f 322/1/4 323/1/4 324/1/4
f 324/1/4 323/1/4 325/1/4
f 325/1/4 323/1/4 326/1/4
f 326/1/4 323/1/4 327/1/4
f 328/1/4 329/1/4 331/1/4
f 331/1/4 329/1/4 332/1/4
f 330/1/4 331/1/4 333/1/4
f 333/1/4 331/1/4 334/1/4
f 335/1/4 336/1/4 337/1/4
f 337/1/4 336/1/4 338/1/4
f 339/1/4 340/1/4 341/1/4
f 341/1/4 340/1/4 342/1/4
f 343/1/4 344/1/4 347/1/4
f 347/1/4 344/1/4 348/1/4
f 345/1/4 346/1/4 350/1/4
f 350/1/4 346/1/4 351/1/4
f 349/3/4 350/3/4 351/3/4
f 351/1/4 346/1/4 352/1/4
f 349/3/4 351/3/4 353/3/4
f 351/3/4 352/3/4 353/3/4
f 353/3/4 352/3/4 354/3/4
f 354/1/4 355/1/4 356/1/4
f 356/1/4 355/1/4 357/1/4
f 358/1/4 359/1/4 360/1/4
f 360/1/4 359/1/4 361/1/4
f 362/1/4 363/1/4 364/1/4
f 364/1/4 363/1/4 365/1/4
f 366/1/4 367/1/4 368/1/4
f 368/1/4 367/1/4 369/1/4
f 370/1/4 371/1/4 372/1/4
f 372/1/4 371/1/4 373/1/4
f 374/1/4 375/1/4 376/1/4
f 376/1/4 375/1/4 377/1/4
f 374/1/4 376/1/4 378/1/4
f 378/1/4 376/1/4 379/1/4
f 379/1/4 380/1/4 381/1/4
f 381/1/4 380/1/4 382/1/4
f 383/1/4 384/1/4 385/1/4
f 385/1/4 384/1/4 386/1/4
f 389/3/5 388/3/5 387/3/5
f 390/3/5 388/3/5 389/3/5
f 393/2/5 392/2/5 391/2/5
f 395/2/5 393/2/5 391/2/5
f 395/2/5 394/2/5 393/2/5
f 396/2/5 394/2/5 395/2/5
f 400/2/5 398/2/5 397/2/5
f 401/2/5 398/2/5 400/2/5
f 401/2/5 400/2/5 399/2/5
f 404/2/5 401/2/5 399/2/5
f 404/2/5 402/2/5 401/2/5
f 405/2/5 402/2/5 404/2/5
f 406/2/5 404/2/5 403/2/5
f 406/2/5 405/2/5 404/2/5
f 407/2/5 405/2/5 406/2/5
f 408/2/5 405/2/5 407/2/5
f 409/2/5 408/2/5 407/2/5
f 410/2/5 408/2/5 409/2/5
f 411/2/5 408/2/5 410/2/5
f 412/2/5 408/2/5 411/2/5
f 413/2/5 411/2/5 410/2/5
f 414/2/5 411/2/5 413/2/5
f 417/1/5 416/1/5 415/1/5
f 418/1/5 416/1/5 417/1/5
f 421/1/5 420/1/5 419/1/5
f 422/1/5 420/1/5 421/1/5
f 423/1/5 420/1/5 422/1/5
f 427/1/5 424/1/5 423/1/5
f 428/1/5 424/1/5 427/1/5
f 429/1/5 426/1/5 425/1/5
f 429/1/5 427/1/5 426/1/5
f 430/1/5 427/1/5 429/1/5
f 435/1/5 432/1/5 431/1/5
f 436/1/5 432/1/5 435/1/5
f 437/1/5 432/1/5 436/1/5
f 438/1/5 432/1/5 437/1/5
f 439/1/5 432/1/5 438/1/5
f 440/1/5 432/1/5 439/1/5
f 441/1/5 434/1/5 433/1/5
f 442/1/5 434/1/5 441/1/5
f 446/1/5 444/1/5 443/1/5
f 447/1/5 444/1/5 446/1/5
f 448/1/5 444/1/5 447/1/5
f 449/1/5 446/1/5 445/1/5
f 449/1/5 447/1/5 446/1/5
f 450/1/5 447/1/5 449/1/5
f 455/1/5 452/1/5 451/1/5
f 456/1/5 454/1/5 453/1/5
f 457/1/5 455/1/5 451/1/5
f 457/1/5 456/1/5 455/1/5
f 458/1/5 454/1/5 456/1/5
f 458/1/5 456/1/5 457/1/5
f 461/1/5 460/1/5 459/1/5
f 462/1/5 460/1/5 461/1/5
f 465/1/5 464/1/5 463/1/5
f 470/1/5 465/1/5 463/1/5
f 470/1/5 466/1/5 465/1/5
f 471/1/5 466/1/5 470/1/5
f 471/1/5 470/1/5 469/1/5
f 472/1/5 466/1/5 471/1/5
f 473/1/5 468/1/5 467/1/5
f 474/1/5 468/1/5 473/1/5
f 475/1/5 471/1/5 469/1/5
f 476/1/5 471/1/5 475/1/5
f 478/1/5 475/1/5 469/1/5
f 479/1/5 475/1/5 478/1/5
f 480/1/5 478/1/5 477/1/5
f 481/1/5 478/1/5 480/1/5
f 482/2/6 483/2/6 484/2/6
f 482/2/6 484/2/6 486/2/6
f 484/2/6 485/2/6 486/2/6
f 486/2/6 485/2/6 487/2/6
f 488/2/6 489/2/6 491/2/6
f 491/2/6 489/2/6 492/2/6
f 490/2/6 491/2/6 492/2/6
f 490/2/6 492/2/6 495/2/6
f 492/2/6 493/2/6 495/2/6
f 494/2/6 495/2/6 496/2/6
f 495/2/6 493/2/6 497/2/6
f 496/2/6 495/2/6 497/2/6
f 497/2/6 493/2/6 498/2/6
f 498/2/6 493/2/6 499/2/6
f 499/2/6 493/2/6 500/2/6
f 500/2/6 493/2/6 501/2/6
f 499/2/6 500/2/6 502/2/6
f 502/2/6 500/2/6 503/2/6
f 504/1/6 505/1/6 506/1/6
f 504/1/6 506/1/6 509/1/6
f 506/1/6 507/1/6 509/1/6
f 509/1/6 507/1/6 510/1/6
f 508/1/6 509/1/6 512/1/6
f 510/1/6 511/1/6 512/1/6
f 509/1/6 510/1/6 512/1/6
f 512/1/6 511/1/6 513/1/6
f 508/1/6 512/1/6 514/1/6
f 514/1/6 512/1/6 515/1/6
f 516/1/6 517/1/6 519/1/6
f 518/1/6 519/1/6 523/1/6
f 519/1/6 517/1/6 524/1/6
f 523/1/6 519/1/6 524/1/6
f 520/1/6 521/1/6 525/1/6
f 525/1/6 521/1/6 526/1/6
f 522/1/6 523/1/6 529/1/6
f 529/1/6 523/1/6 530/1/6
f 527/1/6 528/1/6 531/1/6
f 531/1/6 528/1/6 532/1/6
f 533/1/6 534/1/6 535/1/6
f 535/1/6 534/1/6 536/1/6
f 537/1/6 538/1/6 540/1/6
f 540/1/6 538/1/6 541/1/6
f 541/1/6 538/1/6 542/1/6
f 539/1/6 540/1/6 545/1/6
f 540/1/6 541/1/6 545/1/6
f 545/1/6 541/1/6 546/1/6
f 546/1/6 541/1/6 547/1/6
f 542/1/6 543/1/6 548/1/6
f 544/1/6 545/1/6 551/1/6
f 545/1/6 546/1/6 551/1/6
f 551/1/6 546/1/6 552/1/6
f 552/1/6 546/1/6 553/1/6
f 548/1/6 549/1/6 554/1/6
f 542/1/6 548/1/6 554/1/6
f 554/1/6 549/1/6 555/1/6
f 551/1/6 552/1/6 556/1/6
f 550/1/6 551/1/6 556/1/6
f 556/1/6 552/1/6 557/1/6
f 550/1/6 556/1/6 558/1/6
f 555/1/6 549/1/6 561/1/6
f 561/1/6 549/1/6 562/1/6
f 550/1/6 558/1/6 563/1/6
f 558/1/6 559/1/6 563/1/6
f 563/1/6 559/1/6 564/1/6
f 564/1/6 559/1/6 565/1/6
f 560/1/6 561/1/6 568/1/6
f 568/1/6 561/1/6 569/1/6
f 565/1/6 566/1/6 570/1/6
f 564/1/6 565/1/6 570/1/6
f 570/1/6 566/1/6 571/1/6
f 571/1/6 566/1/6 572/1/6
f 567/1/6 568/1/6 573/1/6
f 573/1/6 568/1/6 574/1/6
f 571/1/6 572/1/6 575/1/6
f 572/1/6 573/1/6 575/1/6
f 575/1/6 573/1/6 576/1/6
