# MagicaVoxel @ Ephtracy

# material
mtllib tree2.mtl
usemtl palette

# normals
vn -1 0 0
vn 1 0 0
vn 0 0 1
vn 0 0 -1
vn 0 -1 0
vn 0 1 0

# texcoords
vt 0.560547 0.5
vt 0.900391 0.5

# verts
v -7 17 8
v -7 17 -12
v -7 19 8
v -7 19 -12
v -5 19 6
v -5 19 -10
v -5 20 6
v -5 20 -10
v -4 20 6
v -4 20 -10
v -4 24 6
v -4 24 -10
v -3 24 2
v -3 24 -7
v -3 27 2
v -3 27 -7
v -2 24 5
v -2 24 2
v -2 24 -7
v -2 24 -9
v -2 27 2
v -2 27 -7
v -2 29 5
v -2 29 -9
v -1 29 -2
v -1 29 -6
v -1 31 2
v -1 31 -2
v -1 31 -4
v -1 31 -6
v -1 32 -3
v -1 32 -4
v -1 33 2
v -1 33 -3
v 0 0 1
v 0 0 -3
v 0 17 1
v 0 17 -3
v 0 21 7
v 0 21 6
v 0 24 7
v 0 24 6
v 0 29 4
v 0 29 -2
v 0 29 -6
v 0 29 -8
v 0 31 2
v 0 31 -2
v 0 31 -4
v 0 31 -6
v 0 32 -3
v 0 32 -4
v 0 33 4
v 0 33 2
v 0 33 -0
v 0 33 -3
v 0 33 -8
v 0 35 2
v 0 35 -0
v 0 35 -3
v 0 35 -5
v 0 37 2
v 0 37 -5
v 1 25 6
v 1 25 5
v 1 27 6
v 1 27 5
v 1 31 5
v 1 31 4
v 1 33 5
v 1 33 4
v 1 33 3
v 1 33 -0
v 1 33 -3
v 1 33 -7
v 1 35 2
v 1 35 -0
v 1 35 -3
v 1 35 -5
v 1 37 3
v 1 37 2
v 1 37 -0
v 1 37 -4
v 1 37 -5
v 1 37 -7
v 1 39 -0
v 1 39 -4
v 2 37 2
v 2 37 -0
v 2 37 -4
v 2 37 -6
v 2 39 -0
v 2 39 -4
v 2 40 2
v 2 40 -6
v 3 20 7
v 3 20 6
v 3 21 7
v 3 21 6
v 3 30 5
v 3 30 4
v 3 31 5
v 3 31 4
v 3 40 1
v 3 40 -5
v 3 42 -4
v 3 42 -5
v 3 43 1
v 3 43 -0
v 3 43 -3
v 3 43 -4
v 3 44 -0
v 3 44 -3
v 4 44 -1
v 4 44 -2
v 4 46 -1
v 4 46 -2
v 5 0 1
v 5 0 -3
v 5 17 1
v 5 17 -3
v 5 40 1
v 5 40 -5
v 5 42 -4
v 5 42 -5
v 5 43 1
v 5 43 -0
v 5 43 -3
v 5 43 -4
v 5 44 -0
v 5 44 -1
v 5 44 -2
v 5 44 -3
v 5 46 -1
v 5 46 -2
v 6 22 7
v 6 22 6
v 6 24 7
v 6 24 6
v 6 25 6
v 6 25 5
v 6 27 6
v 6 27 5
v 6 30 5
v 6 30 4
v 6 31 5
v 6 31 4
v 6 37 2
v 6 37 -6
v 6 40 2
v 6 40 -6
v 7 20 7
v 7 20 6
v 7 22 7
v 7 22 6
v 7 33 3
v 7 33 1
v 7 33 -3
v 7 33 -7
v 7 35 1
v 7 35 -3
v 7 37 3
v 7 37 -7
v 8 29 4
v 8 29 -8
v 8 30 2
v 8 30 -3
v 8 31 5
v 8 31 4
v 8 31 2
v 8 31 1
v 8 32 1
v 8 32 -3
v 8 33 5
v 8 33 1
v 8 33 -3
v 8 33 -8
v 8 35 1
v 8 35 -3
v 9 24 5
v 9 24 -0
v 9 24 -4
v 9 24 -9
v 9 25 3
v 9 25 -0
v 9 25 -6
v 9 25 -9
v 9 27 -0
v 9 27 -4
v 9 28 3
v 9 28 -0
v 9 28 -6
v 9 28 -9
v 9 29 5
v 9 29 -9
v 9 30 2
v 9 30 -3
v 9 31 2
v 9 31 1
v 9 32 1
v 9 32 -3
v 10 19 6
v 10 19 -10
v 10 20 3
v 10 20 -3
v 10 23 3
v 10 23 -3
v 10 24 6
v 10 24 -0
v 10 24 -1
v 10 24 -4
v 10 24 -10
v 10 25 3
v 10 25 -0
v 10 25 -6
v 10 25 -9
v 10 27 -0
v 10 27 -1
v 10 28 3
v 10 28 -0
v 10 28 -6
v 10 28 -9
v 11 17 8
v 11 17 -12
v 11 19 8
v 11 19 -12
v 11 20 3
v 11 20 -3
v 11 23 3
v 11 23 -3
v 11 24 -1
v 11 24 -4
v 11 27 -1
v 11 27 -4
v -7 17 8
v -7 19 8
v 11 17 8
v 11 19 8
v 0 21 7
v 0 24 7
v 3 20 7
v 3 21 7
v 6 22 7
v 6 24 7
v 7 20 7
v 7 22 7
v -5 19 6
v -5 20 6
v -4 20 6
v -4 24 6
v 0 21 6
v 0 24 6
v 1 25 6
v 1 27 6
v 3 20 6
v 3 21 6
v 6 22 6
v 6 24 6
v 6 25 6
v 6 27 6
v 7 20 6
v 7 22 6
v 10 19 6
v 10 24 6
v -2 24 5
v -2 29 5
v 1 25 5
v 1 27 5
v 1 31 5
v 1 33 5
v 3 30 5
v 3 31 5
v 6 25 5
v 6 27 5
v 6 30 5
v 6 31 5
v 8 31 5
v 8 33 5
v 9 24 5
v 9 29 5
v 0 29 4
v 0 33 4
v 1 31 4
v 1 33 4
v 3 30 4
v 3 31 4
v 6 30 4
v 6 31 4
v 8 29 4
v 8 31 4
v 1 33 3
v 1 37 3
v 7 33 3
v 7 37 3
v 9 25 3
v 9 28 3
v 10 20 3
v 10 23 3
v 10 25 3
v 10 28 3
v 11 20 3
v 11 23 3
v -3 24 2
v -3 27 2
v -2 24 2
v -2 27 2
v -1 31 2
v -1 33 2
v 0 31 2
v 0 33 2
v 0 35 2
v 0 37 2
v 1 35 2
v 1 37 2
v 2 37 2
v 2 40 2
v 6 37 2
v 6 40 2
v 8 30 2
v 8 31 2
v 9 30 2
v 9 31 2
v 0 0 1
v 0 17 1
v 3 40 1
v 3 43 1
v 5 0 1
v 5 17 1
v 5 40 1
v 5 43 1
v 7 33 1
v 7 35 1
v 8 31 1
v 8 32 1
v 8 33 1
v 8 35 1
v 9 31 1
v 9 32 1
v 0 33 -0
v 0 35 -0
v 1 33 -0
v 1 35 -0
v 1 37 -0
v 1 39 -0
v 2 37 -0
v 2 39 -0
v 3 43 -0
v 3 44 -0
v 5 43 -0
v 5 44 -0
v 9 24 -0
v 9 25 -0
v 10 24 -0
v 10 25 -0
v 4 44 -1
v 4 46 -1
v 5 44 -1
v 5 46 -1
v 10 24 -1
v 10 27 -1
v 11 24 -1
v 11 27 -1
v -1 29 -2
v -1 31 -2
v 0 29 -2
v 0 31 -2
v 9 25 -6
v 9 28 -6
v 10 25 -6
v 10 28 -6
v 9 27 -0
v 9 28 -0
v 10 27 -0
v 10 28 -0
v 4 44 -2
v 4 46 -2
v 5 44 -2
v 5 46 -2
v -1 32 -3
v -1 33 -3
v 0 0 -3
v 0 17 -3
v 0 32 -3
v 0 33 -3
v 0 35 -3
v 1 33 -3
v 1 35 -3
v 3 43 -3
v 3 44 -3
v 5 0 -3
v 5 17 -3
v 5 43 -3
v 5 44 -3
v 7 33 -3
v 7 35 -3
v 8 30 -3
v 8 32 -3
v 8 33 -3
v 8 35 -3
v 9 30 -3
v 9 32 -3
v 10 20 -3
v 10 23 -3
v 11 20 -3
v 11 23 -3
v -1 31 -4
v -1 32 -4
v 0 31 -4
v 0 32 -4
v 1 37 -4
v 1 39 -4
v 2 37 -4
v 2 39 -4
v 3 42 -4
v 3 43 -4
v 5 42 -4
v 5 43 -4
v 9 24 -4
v 9 27 -4
v 10 24 -4
v 11 24 -4
v 11 27 -4
v 0 35 -5
v 0 37 -5
v 1 35 -5
v 1 37 -5
v 3 40 -5
v 3 42 -5
v 5 40 -5
v 5 42 -5
v -1 29 -6
v -1 31 -6
v 0 29 -6
v 0 31 -6
v 2 37 -6
v 2 40 -6
v 6 37 -6
v 6 40 -6
v -3 24 -7
v -3 27 -7
v -2 24 -7
v -2 27 -7
v 1 33 -7
v 1 37 -7
v 7 33 -7
v 7 37 -7
v 0 29 -8
v 0 33 -8
v 8 29 -8
v 8 33 -8
v -2 24 -9
v -2 29 -9
v 9 24 -9
v 9 25 -9
v 9 28 -9
v 9 29 -9
v 10 25 -9
v 10 28 -9
v -5 19 -10
v -5 20 -10
v -4 20 -10
v -4 24 -10
v 10 19 -10
v 10 24 -10
v -7 17 -12
v -7 19 -12
v 11 17 -12
v 11 19 -12
v 0 0 1
v 5 0 1
v 0 0 -3
v 5 0 -3
v -7 17 8
v 11 17 8
v 0 17 1
v 5 17 1
v 0 17 -3
v 5 17 -3
v -7 17 -12
v 11 17 -12
v 3 20 7
v 7 20 7
v 3 20 6
v 7 20 6
v 10 20 3
v 11 20 3
v 10 20 -3
v 11 20 -3
v 0 21 7
v 3 21 7
v 0 21 6
v 3 21 6
v 10 24 -1
v 11 24 -1
v 10 24 -4
v 11 24 -4
v 1 25 6
v 6 25 6
v 1 25 5
v 6 25 5
v 9 25 3
v 10 25 3
v 9 25 -0
v 10 25 -0
v 9 25 -6
v 10 25 -6
v 9 25 -9
v 10 25 -9
v 3 30 5
v 6 30 5
v 3 30 4
v 6 30 4
v 8 30 2
v 9 30 2
v 8 30 -3
v 9 30 -3
v 1 31 5
v 3 31 5
v 6 31 5
v 8 31 5
v 1 31 4
v 3 31 4
v 6 31 4
v 8 31 4
v -1 31 2
v 0 31 2
v -1 31 -2
v 0 31 -2
v 0 35 2
v 1 35 2
v 0 35 -0
v 1 35 -0
v 0 35 -3
v 1 35 -3
v 0 35 -5
v 1 35 -5
v -7 19 8
v 11 19 8
v -5 19 6
v 10 19 6
v -5 19 -10
v 10 19 -10
v -7 19 -12
v 11 19 -12
v -5 20 6
v -4 20 6
v -5 20 -10
v -4 20 -10
v 6 22 7
v 7 22 7
v 6 22 6
v 7 22 6
v 10 23 3
v 11 23 3
v 10 23 -3
v 11 23 -3
v 0 24 7
v 6 24 7
v -4 24 6
v 0 24 6
v 6 24 6
v 10 24 6
v -2 24 5
v 9 24 5
v -3 24 2
v -2 24 2
v 9 24 -0
v 10 24 -0
v 9 24 -4
v 10 24 -4
v -3 24 -7
v -2 24 -7
v -2 24 -9
v 9 24 -9
v -4 24 -10
v 10 24 -10
v 1 27 6
v 6 27 6
v 1 27 5
v 6 27 5
v -3 27 2
v -2 27 2
v 9 27 -0
v 10 27 -0
v 10 27 -1
v 11 27 -1
v 9 27 -4
v 11 27 -4
v -3 27 -7
v -2 27 -7
v 9 28 3
v 10 28 3
v 9 28 -0
v 10 28 -0
v 9 28 -6
v 10 28 -6
v 9 28 -9
v 10 28 -9
v -2 29 5
v 9 29 5
v 0 29 4
v 8 29 4
v -1 29 -2
v 0 29 -2
v -1 29 -6
v 0 29 -6
v 0 29 -8
v 8 29 -8
v -2 29 -9
v 9 29 -9
v 8 31 2
v 9 31 2
v 8 31 1
v 9 31 1
v -1 31 -4
v 0 31 -4
v -1 31 -6
v 0 31 -6
v 8 32 1
v 9 32 1
v -1 32 -3
v 0 32 -3
v 8 32 -3
v 9 32 -3
v -1 32 -4
v 0 32 -4
v 1 33 5
v 8 33 5
v 0 33 4
v 1 33 4
v 1 33 3
v 7 33 3
v -1 33 2
v 0 33 2
v 7 33 1
v 8 33 1
v 0 33 -0
v 1 33 -0
v -1 33 -3
v 0 33 -3
v 1 33 -3
v 7 33 -3
v 8 33 -3
v 1 33 -7
v 7 33 -7
v 0 33 -8
v 8 33 -8
v 7 35 1
v 8 35 1
v 7 35 -3
v 8 35 -3
v 1 37 3
v 7 37 3
v 0 37 2
v 1 37 2
v 2 37 2
v 6 37 2
v 1 37 -0
v 2 37 -0
v 1 37 -4
v 2 37 -4
v 0 37 -5
v 1 37 -5
v 2 37 -6
v 6 37 -6
v 1 37 -7
v 7 37 -7
v 1 39 -0
v 2 39 -0
v 1 39 -4
v 2 39 -4
v 2 40 2
v 6 40 2
v 3 40 1
v 5 40 1
v 3 40 -5
v 5 40 -5
v 2 40 -6
v 6 40 -6
v 3 42 -4
v 5 42 -4
v 3 42 -5
v 5 42 -5
v 3 43 1
v 5 43 1
v 3 43 -0
v 5 43 -0
v 3 43 -3
v 5 43 -3
v 3 43 -4
v 5 43 -4
v 3 44 -0
v 5 44 -0
v 4 44 -1
v 5 44 -1
v 4 44 -2
v 5 44 -2
v 3 44 -3
v 5 44 -3
v 4 46 -1
v 5 46 -1
v 4 46 -2
v 5 46 -2

# faces
f 3/2/1 2/2/1 1/2/1
f 4/2/1 2/2/1 3/2/1
f 7/2/1 6/2/1 5/2/1
f 8/2/1 6/2/1 7/2/1
f 11/2/1 10/2/1 9/2/1
f 12/2/1 10/2/1 11/2/1
f 15/2/1 14/2/1 13/2/1
f 16/2/1 14/2/1 15/2/1
f 21/2/1 18/2/1 17/2/1
f 22/2/1 20/2/1 19/2/1
f 23/2/1 21/2/1 17/2/1
f 23/2/1 22/2/1 21/2/1
f 24/2/1 20/2/1 22/2/1
f 24/2/1 22/2/1 23/2/1
f 28/2/1 26/2/1 25/2/1
f 29/2/1 26/2/1 28/2/1
f 30/2/1 26/2/1 29/2/1
f 31/2/1 28/2/1 27/2/1
f 31/2/1 29/2/1 28/2/1
f 32/2/1 29/2/1 31/2/1
f 33/2/1 31/2/1 27/2/1
f 34/2/1 31/2/1 33/2/1
f 37/1/1 36/1/1 35/1/1
f 38/1/1 36/1/1 37/1/1
f 41/2/1 40/2/1 39/2/1
f 42/2/1 40/2/1 41/2/1
f 47/2/1 44/2/1 43/2/1
f 48/2/1 44/2/1 47/2/1
f 50/2/1 46/2/1 45/2/1
f 52/2/1 50/2/1 49/2/1
f 53/2/1 47/2/1 43/2/1
f 54/2/1 47/2/1 53/2/1
f 56/2/1 52/2/1 51/2/1
f 57/2/1 46/2/1 50/2/1
f 57/2/1 50/2/1 52/2/1
f 57/2/1 52/2/1 56/2/1
f 59/2/1 56/2/1 55/2/1
f 60/2/1 56/2/1 59/2/1
f 62/2/1 59/2/1 58/2/1
f 62/2/1 61/2/1 60/2/1
f 62/2/1 60/2/1 59/2/1
f 63/2/1 61/2/1 62/2/1
f 66/2/1 65/2/1 64/2/1
f 67/2/1 65/2/1 66/2/1
f 70/2/1 69/2/1 68/2/1
f 71/2/1 69/2/1 70/2/1
f 76/2/1 73/2/1 72/2/1
f 77/2/1 73/2/1 76/2/1
f 78/2/1 75/2/1 74/2/1
f 79/2/1 75/2/1 78/2/1
f 80/2/1 76/2/1 72/2/1
f 81/2/1 76/2/1 80/2/1
f 84/2/1 75/2/1 79/2/1
f 85/2/1 75/2/1 84/2/1
f 86/2/1 83/2/1 82/2/1
f 87/2/1 83/2/1 86/2/1
f 92/2/1 89/2/1 88/2/1
f 93/2/1 91/2/1 90/2/1
f 94/2/1 92/2/1 88/2/1
f 94/2/1 93/2/1 92/2/1
f 95/2/1 91/2/1 93/2/1
f 95/2/1 93/2/1 94/2/1
f 98/2/1 97/2/1 96/2/1
f 99/2/1 97/2/1 98/2/1
f 102/2/1 101/2/1 100/2/1
f 103/2/1 101/2/1 102/2/1
f 106/2/1 105/2/1 104/2/1
f 107/2/1 105/2/1 106/2/1
f 108/2/1 106/2/1 104/2/1
f 109/2/1 106/2/1 108/2/1
f 110/2/1 106/2/1 109/2/1
f 111/2/1 106/2/1 110/2/1
f 112/2/1 110/2/1 109/2/1
f 113/2/1 110/2/1 112/2/1
f 116/2/1 115/2/1 114/2/1
f 117/2/1 115/2/1 116/2/1
f 118/1/2 119/1/2 120/1/2
f 120/1/2 119/1/2 121/1/2
f 122/2/2 123/2/2 124/2/2
f 124/2/2 123/2/2 125/2/2
f 122/2/2 124/2/2 126/2/2
f 126/2/2 124/2/2 127/2/2
f 127/2/2 124/2/2 128/2/2
f 128/2/2 124/2/2 129/2/2
f 127/2/2 128/2/2 130/2/2
f 130/2/2 128/2/2 131/2/2
f 131/2/2 128/2/2 132/2/2
f 132/2/2 128/2/2 133/2/2
f 131/2/2 132/2/2 134/2/2
f 134/2/2 132/2/2 135/2/2
f 136/2/2 137/2/2 138/2/2
f 138/2/2 137/2/2 139/2/2
f 140/2/2 141/2/2 142/2/2
f 142/2/2 141/2/2 143/2/2
f 144/2/2 145/2/2 146/2/2
f 146/2/2 145/2/2 147/2/2
f 148/2/2 149/2/2 150/2/2
f 150/2/2 149/2/2 151/2/2
f 152/2/2 153/2/2 154/2/2
f 154/2/2 153/2/2 155/2/2
f 156/2/2 157/2/2 160/2/2
f 158/2/2 159/2/2 161/2/2
f 156/2/2 160/2/2 162/2/2
f 160/2/2 161/2/2 162/2/2
f 161/2/2 159/2/2 163/2/2
f 162/2/2 161/2/2 163/2/2
f 164/2/2 165/2/2 166/2/2
f 166/2/2 165/2/2 167/2/2
f 164/2/2 166/2/2 169/2/2
f 169/2/2 166/2/2 170/2/2
f 168/2/2 169/2/2 172/2/2
f 170/2/2 171/2/2 172/2/2
f 169/2/2 170/2/2 172/2/2
f 167/2/2 165/2/2 173/2/2
f 168/2/2 172/2/2 174/2/2
f 172/2/2 173/2/2 174/2/2
f 174/2/2 173/2/2 175/2/2
f 173/2/2 165/2/2 176/2/2
f 175/2/2 173/2/2 176/2/2
f 176/2/2 165/2/2 177/2/2
f 175/2/2 176/2/2 178/2/2
f 178/2/2 176/2/2 179/2/2
f 180/2/2 181/2/2 184/2/2
f 184/2/2 181/2/2 185/2/2
f 182/2/2 183/2/2 186/2/2
f 186/2/2 183/2/2 187/2/2
f 182/2/2 186/2/2 189/2/2
f 180/2/2 184/2/2 190/2/2
f 188/2/2 189/2/2 191/2/2
f 189/2/2 186/2/2 192/2/2
f 191/2/2 189/2/2 192/2/2
f 180/2/2 190/2/2 194/2/2
f 192/2/2 193/2/2 194/2/2
f 191/2/2 192/2/2 194/2/2
f 190/2/2 191/2/2 194/2/2
f 194/2/2 193/2/2 195/2/2
f 196/2/2 197/2/2 198/2/2
f 198/2/2 197/2/2 199/2/2
f 199/2/2 197/2/2 200/2/2
f 200/2/2 197/2/2 201/2/2
f 202/2/2 203/2/2 204/2/2
f 204/2/2 203/2/2 205/2/2
f 202/2/2 204/2/2 206/2/2
f 205/2/2 203/2/2 207/2/2
f 202/2/2 206/2/2 208/2/2
f 206/2/2 207/2/2 208/2/2
f 208/2/2 207/2/2 209/2/2
f 209/2/2 207/2/2 210/2/2
f 207/2/2 203/2/2 211/2/2
f 210/2/2 207/2/2 211/2/2
f 211/2/2 203/2/2 212/2/2
f 209/2/2 210/2/2 214/2/2
f 214/2/2 210/2/2 217/2/2
f 213/2/2 214/2/2 217/2/2
f 217/2/2 210/2/2 218/2/2
f 213/2/2 217/2/2 219/2/2
f 219/2/2 217/2/2 220/2/2
f 215/2/2 216/2/2 221/2/2
f 221/2/2 216/2/2 222/2/2
f 223/2/2 224/2/2 225/2/2
f 225/2/2 224/2/2 226/2/2
f 227/2/2 228/2/2 229/2/2
f 229/2/2 228/2/2 230/2/2
f 231/2/2 232/2/2 233/2/2
f 233/2/2 232/2/2 234/2/2
f 237/2/3 236/2/3 235/2/3
f 238/2/3 236/2/3 237/2/3
f 242/2/3 240/2/3 239/2/3
f 243/2/3 240/2/3 242/2/3
f 243/2/3 242/2/3 241/2/3
f 244/2/3 240/2/3 243/2/3
f 245/2/3 243/2/3 241/2/3
f 246/2/3 243/2/3 245/2/3
f 249/2/3 248/2/3 247/2/3
f 251/2/3 250/2/3 249/2/3
f 252/2/3 250/2/3 251/2/3
f 255/2/3 249/2/3 247/2/3
f 255/2/3 251/2/3 249/2/3
f 256/2/3 251/2/3 255/2/3
f 259/2/3 254/2/3 253/2/3
f 260/2/3 254/2/3 259/2/3
f 261/2/3 255/2/3 247/2/3
f 262/2/3 258/2/3 257/2/3
f 263/2/3 261/2/3 247/2/3
f 263/2/3 262/2/3 261/2/3
f 264/2/3 258/2/3 262/2/3
f 264/2/3 262/2/3 263/2/3
f 267/2/3 266/2/3 265/2/3
f 268/2/3 266/2/3 267/2/3
f 272/2/3 270/2/3 269/2/3
f 273/2/3 267/2/3 265/2/3
f 274/2/3 266/2/3 268/2/3
f 275/2/3 272/2/3 271/2/3
f 276/2/3 270/2/3 272/2/3
f 276/2/3 272/2/3 275/2/3
f 277/2/3 270/2/3 276/2/3
f 278/2/3 270/2/3 277/2/3
f 279/2/3 274/2/3 273/2/3
f 279/2/3 273/2/3 265/2/3
f 280/2/3 266/2/3 274/2/3
f 280/2/3 274/2/3 279/2/3
f 283/2/3 282/2/3 281/2/3
f 284/2/3 282/2/3 283/2/3
f 285/2/3 283/2/3 281/2/3
f 286/2/3 283/2/3 285/2/3
f 287/2/3 285/2/3 281/2/3
f 289/2/3 287/2/3 281/2/3
f 289/2/3 288/2/3 287/2/3
f 290/2/3 288/2/3 289/2/3
f 293/2/3 292/2/3 291/2/3
f 294/2/3 292/2/3 293/2/3
f 299/2/3 296/2/3 295/2/3
f 300/2/3 296/2/3 299/2/3
f 301/2/3 298/2/3 297/2/3
f 302/2/3 298/2/3 301/2/3
f 305/2/3 304/2/3 303/2/3
f 306/2/3 304/2/3 305/2/3
f 309/2/3 308/2/3 307/2/3
f 310/2/3 308/2/3 309/2/3
f 313/2/3 312/2/3 311/2/3
f 314/2/3 312/2/3 313/2/3
f 317/2/3 316/2/3 315/2/3
f 318/2/3 316/2/3 317/2/3
f 321/2/3 320/2/3 319/2/3
f 322/2/3 320/2/3 321/2/3
f 327/1/3 324/1/3 323/1/3
f 328/1/3 324/1/3 327/1/3
f 329/2/3 326/2/3 325/2/3
f 330/2/3 326/2/3 329/2/3
f 335/2/3 332/2/3 331/2/3
f 336/2/3 332/2/3 335/2/3
f 337/2/3 334/2/3 333/2/3
f 338/2/3 334/2/3 337/2/3
f 341/2/3 340/2/3 339/2/3
f 342/2/3 340/2/3 341/2/3
f 345/2/3 344/2/3 343/2/3
f 346/2/3 344/2/3 345/2/3
f 349/2/3 348/2/3 347/2/3
f 350/2/3 348/2/3 349/2/3
f 353/2/3 352/2/3 351/2/3
f 354/2/3 352/2/3 353/2/3
f 357/2/3 356/2/3 355/2/3
f 358/2/3 356/2/3 357/2/3
f 361/2/3 360/2/3 359/2/3
f 362/2/3 360/2/3 361/2/3
f 365/2/3 364/2/3 363/2/3
f 366/2/3 364/2/3 365/2/3
f 369/2/3 368/2/3 367/2/3
f 370/2/3 368/2/3 369/2/3
f 371/2/4 372/2/4 373/2/4
f 373/2/4 372/2/4 374/2/4
f 375/2/4 376/2/4 377/2/4
f 377/2/4 376/2/4 378/2/4
f 379/2/4 380/2/4 383/2/4
f 383/2/4 380/2/4 384/2/4
f 384/2/4 385/2/4 386/2/4
f 386/2/4 385/2/4 387/2/4
f 381/1/4 382/1/4 390/1/4
f 390/1/4 382/1/4 391/1/4
f 388/2/4 389/2/4 392/2/4
f 392/2/4 389/2/4 393/2/4
f 394/2/4 395/2/4 398/2/4
f 398/2/4 395/2/4 399/2/4
f 396/2/4 397/2/4 400/2/4
f 400/2/4 397/2/4 401/2/4
f 402/2/4 403/2/4 404/2/4
f 404/2/4 403/2/4 405/2/4
f 406/2/4 407/2/4 408/2/4
f 408/2/4 407/2/4 409/2/4
f 410/2/4 411/2/4 412/2/4
f 412/2/4 411/2/4 413/2/4
f 414/2/4 415/2/4 416/2/4
f 416/2/4 415/2/4 417/2/4
f 418/2/4 419/2/4 420/2/4
f 420/2/4 419/2/4 421/2/4
f 421/2/4 419/2/4 422/2/4
f 423/2/4 424/2/4 425/2/4
f 425/2/4 424/2/4 426/2/4
f 427/2/4 428/2/4 429/2/4
f 429/2/4 428/2/4 430/2/4
f 431/2/4 432/2/4 433/2/4
f 433/2/4 432/2/4 434/2/4
f 435/2/4 436/2/4 437/2/4
f 437/2/4 436/2/4 438/2/4
f 439/2/4 440/2/4 441/2/4
f 441/2/4 440/2/4 442/2/4
f 443/2/4 444/2/4 445/2/4
f 445/2/4 444/2/4 446/2/4
f 447/2/4 448/2/4 449/2/4
f 449/2/4 448/2/4 450/2/4
f 451/2/4 452/2/4 453/2/4
f 453/2/4 452/2/4 454/2/4
f 454/2/4 452/2/4 455/2/4
f 455/2/4 452/2/4 456/2/4
f 454/2/4 455/2/4 457/2/4
f 457/2/4 455/2/4 458/2/4
f 459/2/4 460/2/4 461/2/4
f 459/2/4 461/2/4 463/2/4
f 461/2/4 462/2/4 463/2/4
f 463/2/4 462/2/4 464/2/4
f 465/2/4 466/2/4 467/2/4
f 467/2/4 466/2/4 468/2/4
f 471/1/5 470/1/5 469/1/5
f 472/1/5 470/1/5 471/1/5
f 475/2/5 474/2/5 473/2/5
f 476/2/5 474/2/5 475/2/5
f 477/2/5 475/2/5 473/2/5
f 478/2/5 474/2/5 476/2/5
f 479/2/5 477/2/5 473/2/5
f 479/2/5 478/2/5 477/2/5
f 480/2/5 474/2/5 478/2/5
f 480/2/5 478/2/5 479/2/5
f 483/2/5 482/2/5 481/2/5
f 484/2/5 482/2/5 483/2/5
f 487/2/5 486/2/5 485/2/5
f 488/2/5 486/2/5 487/2/5
f 491/2/5 490/2/5 489/2/5
f 492/2/5 490/2/5 491/2/5
f 495/2/5 494/2/5 493/2/5
f 496/2/5 494/2/5 495/2/5
f 499/2/5 498/2/5 497/2/5
f 500/2/5 498/2/5 499/2/5
f 503/2/5 502/2/5 501/2/5
f 504/2/5 502/2/5 503/2/5
f 507/2/5 506/2/5 505/2/5
f 508/2/5 506/2/5 507/2/5
f 511/2/5 510/2/5 509/2/5
f 512/2/5 510/2/5 511/2/5
f 515/2/5 514/2/5 513/2/5
f 516/2/5 514/2/5 515/2/5
f 521/2/5 518/2/5 517/2/5
f 522/2/5 518/2/5 521/2/5
f 523/2/5 520/2/5 519/2/5
f 524/2/5 520/2/5 523/2/5
f 527/2/5 526/2/5 525/2/5
f 528/2/5 526/2/5 527/2/5
f 531/2/5 530/2/5 529/2/5
f 532/2/5 530/2/5 531/2/5
f 535/2/5 534/2/5 533/2/5
f 536/2/5 534/2/5 535/2/5
f 537/2/6 538/2/6 539/2/6
f 539/2/6 538/2/6 540/2/6
f 537/2/6 539/2/6 541/2/6
f 540/2/6 538/2/6 542/2/6
f 537/2/6 541/2/6 543/2/6
f 541/2/6 542/2/6 543/2/6
f 542/2/6 538/2/6 544/2/6
f 543/2/6 542/2/6 544/2/6
f 545/2/6 546/2/6 547/2/6
f 547/2/6 546/2/6 548/2/6
f 549/2/6 550/2/6 551/2/6
f 551/2/6 550/2/6 552/2/6
f 553/2/6 554/2/6 555/2/6
f 555/2/6 554/2/6 556/2/6
f 557/2/6 558/2/6 560/2/6
f 560/2/6 558/2/6 561/2/6
f 559/2/6 560/2/6 563/2/6
f 561/2/6 562/2/6 563/2/6
f 560/2/6 561/2/6 563/2/6
f 563/2/6 562/2/6 564/2/6
f 559/2/6 563/2/6 565/2/6
f 565/2/6 563/2/6 566/2/6
f 564/2/6 562/2/6 567/2/6
f 567/2/6 562/2/6 568/2/6
f 559/2/6 565/2/6 571/2/6
f 571/2/6 572/2/6 573/2/6
f 569/2/6 570/2/6 574/2/6
f 571/2/6 573/2/6 575/2/6
f 573/2/6 574/2/6 575/2/6
f 559/2/6 571/2/6 575/2/6
f 574/2/6 570/2/6 576/2/6
f 575/2/6 574/2/6 576/2/6
f 577/2/6 578/2/6 579/2/6
f 579/2/6 578/2/6 580/2/6
f 583/2/6 584/2/6 585/2/6
f 583/2/6 585/2/6 587/2/6
f 585/2/6 586/2/6 587/2/6
f 587/2/6 586/2/6 588/2/6
f 581/2/6 582/2/6 589/2/6
f 589/2/6 582/2/6 590/2/6
f 591/2/6 592/2/6 593/2/6
f 593/2/6 592/2/6 594/2/6
f 595/2/6 596/2/6 597/2/6
f 597/2/6 596/2/6 598/2/6
f 599/2/6 600/2/6 601/2/6
f 601/2/6 600/2/6 602/2/6
f 599/2/6 601/2/6 603/2/6
f 603/2/6 601/2/6 604/2/6
f 599/2/6 603/2/6 605/2/6
f 605/2/6 606/2/6 607/2/6
f 602/2/6 600/2/6 608/2/6
f 605/2/6 607/2/6 609/2/6
f 607/2/6 608/2/6 609/2/6
f 599/2/6 605/2/6 609/2/6
f 608/2/6 600/2/6 610/2/6
f 609/2/6 608/2/6 610/2/6
f 611/2/6 612/2/6 613/2/6
f 613/2/6 612/2/6 614/2/6
f 615/2/6 616/2/6 617/2/6
f 617/2/6 616/2/6 618/2/6
f 619/2/6 620/2/6 623/2/6
f 623/2/6 620/2/6 624/2/6
f 621/2/6 622/2/6 625/2/6
f 625/2/6 622/2/6 626/2/6
f 627/2/6 628/2/6 630/2/6
f 630/2/6 628/2/6 631/2/6
f 629/2/6 630/2/6 631/2/6
f 631/2/6 628/2/6 632/2/6
f 629/2/6 631/2/6 634/2/6
f 632/2/6 628/2/6 635/2/6
f 635/2/6 628/2/6 636/2/6
f 633/2/6 634/2/6 637/2/6
f 634/2/6 631/2/6 637/2/6
f 637/2/6 631/2/6 638/2/6
f 633/2/6 637/2/6 639/2/6
f 639/2/6 637/2/6 640/2/6
f 640/2/6 641/2/6 644/2/6
f 642/2/6 643/2/6 645/2/6
f 640/2/6 644/2/6 646/2/6
f 644/2/6 645/2/6 646/2/6
f 645/2/6 643/2/6 647/2/6
f 646/2/6 645/2/6 647/2/6
f 648/2/6 649/2/6 650/2/6
f 650/2/6 649/2/6 651/2/6
f 652/2/6 653/2/6 655/2/6
f 655/2/6 653/2/6 656/2/6
f 656/2/6 653/2/6 657/2/6
f 654/2/6 655/2/6 658/2/6
f 655/2/6 656/2/6 658/2/6
f 658/2/6 656/2/6 659/2/6
f 654/2/6 658/2/6 660/2/6
f 654/2/6 660/2/6 662/2/6
f 660/2/6 661/2/6 662/2/6
f 662/2/6 661/2/6 663/2/6
f 663/2/6 661/2/6 664/2/6
f 657/2/6 653/2/6 665/2/6
f 663/2/6 664/2/6 666/2/6
f 664/2/6 665/2/6 666/2/6
f 665/2/6 653/2/6 667/2/6
f 666/2/6 665/2/6 667/2/6
f 668/2/6 669/2/6 670/2/6
f 670/2/6 669/2/6 671/2/6
f 672/2/6 673/2/6 674/2/6
f 674/2/6 673/2/6 675/2/6
f 672/2/6 674/2/6 676/2/6
f 675/2/6 673/2/6 677/2/6
f 672/2/6 676/2/6 678/2/6
f 676/2/6 677/2/6 678/2/6
f 677/2/6 673/2/6 679/2/6
f 678/2/6 677/2/6 679/2/6
f 680/2/6 681/2/6 682/2/6
f 682/2/6 681/2/6 683/2/6
f 684/2/6 685/2/6 686/2/6
f 686/2/6 685/2/6 687/2/6
f 688/2/6 689/2/6 690/2/6
f 690/2/6 689/2/6 691/2/6
f 692/2/6 693/2/6 694/2/6
f 694/2/6 693/2/6 695/2/6
f 692/2/6 694/2/6 696/2/6
f 692/2/6 696/2/6 698/2/6
f 696/2/6 697/2/6 698/2/6
f 698/2/6 697/2/6 699/2/6
f 700/2/6 701/2/6 702/2/6
f 702/2/6 701/2/6 703/2/6
